<svg xmlns="http://www.w3.org/2000/svg" width="20" height="20" viewBox="0 0 20 20">
  <path id="Path_2917" data-name="Path 2917" d="M303.387,287l-1.5-5.061a1.546,1.546,0,0,0-1.481-1.106H287.063a1.541,1.541,0,0,0-1.482,1.106L284.073,287l-.343,1.634v1.591a1.549,1.549,0,0,0,1.547,1.547h.632v8.243a.817.817,0,1,0,1.634,0V291.77h.468v2.076a.817.817,0,1,0,1.634,0V291.77h8.17v2.076a.817.817,0,1,0,1.634,0V291.77h.468v8.243a.817.817,0,1,0,1.634,0V291.77h.637a1.544,1.544,0,0,0,1.541-1.542v-1.6Zm-16.155-4.533h12.99L301.715,287H285.74Zm14.864,7.671H285.364v-1.5H302.1Z" transform="translate(-283.73 -280.83)" fill="#e83c77"/>
</svg>
