<svg xmlns="http://www.w3.org/2000/svg" width="40" height="40" viewBox="0 0 40 40">
  <path id="Shape" d="M15.61,34.635a5.365,5.365,0,0,1,10-2.7c4.078-1.8,5.607-4.62,5.607-9.987V16.1C31.22,8.31,26.828,2.927,20,2.927S8.78,8.31,8.78,16.1v6.829A1.465,1.465,0,0,1,7.318,24.39H5.367A5.372,5.372,0,0,1,0,19.025V17.074a5.373,5.373,0,0,1,5.367-5.367H6.3C7.776,4.74,12.831,0,20,0S32.223,4.74,33.7,11.708h.934A5.373,5.373,0,0,1,40,17.074v1.951a5.372,5.372,0,0,1-5.367,5.365h-.6c-.527,5.225-2.887,8.444-7.692,10.419a5.366,5.366,0,0,1-10.729-.174Zm2.927,0A2.438,2.438,0,1,0,20.976,32.2,2.441,2.441,0,0,0,18.537,34.635Zm15.61-13.171h.486a2.442,2.442,0,0,0,2.439-2.439V17.074a2.442,2.442,0,0,0-2.439-2.439h-.486Zm-31.22-4.39v1.951a2.442,2.442,0,0,0,2.439,2.439h.486V14.635H5.367A2.442,2.442,0,0,0,2.927,17.074Z" fill="#e83c77"/>
</svg>
