<svg xmlns="http://www.w3.org/2000/svg" width="44.648" height="44.648" viewBox="0 0 44.648 44.648">
  <g id="Group_2465" data-name="Group 2465" transform="translate(-194.905 -407.034)">
    <path id="Path_2928" data-name="Path 2928" d="M211.807,429.84a2.047,2.047,0,0,1-2.048-2.048V417.225a2.048,2.048,0,0,1,4.1,0v10.568A2.048,2.048,0,0,1,211.807,429.84Z" transform="translate(5.422 2.973)" fill="#fcd060"/>
    <circle id="Ellipse_142" data-name="Ellipse 142" cx="2.229" cy="2.229" r="2.229" transform="translate(215 434.9)" fill="#fcd060"/>
    <path id="Path_2929" data-name="Path 2929" d="M217.229,411.129A18.229,18.229,0,1,1,199,429.358a18.249,18.249,0,0,1,18.229-18.229m0-4.1a22.324,22.324,0,1,0,22.324,22.324,22.324,22.324,0,0,0-22.324-22.324Z" fill="#fcd060"/>
  </g>
</svg>
