<svg xmlns="http://www.w3.org/2000/svg" width="20.882" height="14.898" viewBox="0 0 20.882 14.898">
  <g id="Group_1853" data-name="Group 1853" transform="translate(-1288.881 -160.395)">
    <path id="Path_1104" data-name="Path 1104" d="M1302.563,182.138h-.66a.394.394,0,0,1-.389-.377,5.558,5.558,0,0,0-1.072-2.93,5.4,5.4,0,0,0-.994-1.042,5.6,5.6,0,0,0-9.123,3.972.4.4,0,0,1-.389.377h-.66a.391.391,0,0,1-.394-.406,7.048,7.048,0,0,1,11.742-4.84,6.9,6.9,0,0,1,.988,1.1,6.975,6.975,0,0,1,1.346,3.739A.393.393,0,0,1,1302.563,182.138Z" transform="translate(0 -6.844)" fill="#9a9a9a"/>
    <path id="Path_1105" data-name="Path 1105" d="M1299.043,161.837a2.013,2.013,0,1,1-2.013,2.013,2.015,2.015,0,0,1,2.013-2.013m0-1.442a3.456,3.456,0,1,0,3.456,3.456,3.455,3.455,0,0,0-3.456-3.456Z" transform="translate(-3.123)" fill="#9a9a9a"/>
    <path id="Path_1106" data-name="Path 1106" d="M1318.582,182.976h-.66a.4.4,0,0,1-.392-.376,4.651,4.651,0,0,0-4.628-4.267,4.535,4.535,0,0,0-2.078.5,4.687,4.687,0,0,0-1.17.839,5.388,5.388,0,0,0-.994-1.042,5.808,5.808,0,0,1,1.175-.9,5.971,5.971,0,0,1,3.067-.839,6.094,6.094,0,0,1,6.072,5.68A.388.388,0,0,1,1318.582,182.976Z" transform="translate(-9.212 -7.683)" fill="#9a9a9a"/>
    <path id="Path_1107" data-name="Path 1107" d="M1314.051,166.093a1.486,1.486,0,1,1-1.486,1.486,1.487,1.487,0,0,1,1.486-1.486m0-1.443a2.928,2.928,0,1,0,2.928,2.928,2.928,2.928,0,0,0-2.928-2.928Z" transform="translate(-10.359 -1.982)" fill="#9a9a9a"/>
  </g>
</svg>
