<svg xmlns="http://www.w3.org/2000/svg" width="18.328" height="24.061" viewBox="0 0 18.328 24.061">
  <g id="Group_2499" data-name="Group 2499" transform="translate(-35 -740)">
    <g id="google-docs" transform="translate(-26 740)">
      <path id="Path_3127" data-name="Path 3127" d="M160.1,212h-8.4a.71.71,0,0,0,0,1.421h8.4a.71.71,0,0,0,0-1.421Z" transform="translate(-85.738 -202.042)" fill="#a4a4a4"/>
      <path id="Path_3128" data-name="Path 3128" d="M160.1,272h-8.4a.71.71,0,0,0,0,1.421h8.4a.71.71,0,0,0,0-1.421Z" transform="translate(-85.738 -259.224)" fill="#a4a4a4"/>
      <path id="Path_3129" data-name="Path 3129" d="M160.1,332h-8.4a.71.71,0,0,0,0,1.421h8.4a.71.71,0,0,0,0-1.421Z" transform="translate(-85.738 -316.405)" fill="#a4a4a4"/>
      <path id="Path_3130" data-name="Path 3130" d="M157.393,392H151.71a.71.71,0,0,0,0,1.421h5.683a.71.71,0,0,0,0-1.421Z" transform="translate(-85.791 -373.587)" fill="#a4a4a4"/>
    </g>
    <path id="Path_3126" data-name="Path 3126" d="M79.121,5.846,73.482.207a.706.706,0,0,0-.5-.207H63.115A2.117,2.117,0,0,0,61,2.115V21.946a2.117,2.117,0,0,0,2.115,2.115h14.1a2.117,2.117,0,0,0,2.115-2.115V6.344A.711.711,0,0,0,79.121,5.846ZM73.688,2.407l3.233,3.233H74.393a.706.706,0,0,1-.7-.7Zm3.525,20.245h-14.1a.706.706,0,0,1-.7-.7V2.115a.706.706,0,0,1,.7-.7h9.164V4.934a2.117,2.117,0,0,0,2.115,2.115h3.525v14.9A.706.706,0,0,1,77.213,22.651Z" transform="translate(-26 740)" fill="#a4a4a4"/>
  </g>
</svg>
