<svg xmlns="http://www.w3.org/2000/svg" width="25" height="24.203" viewBox="0 0 25 24.203">
  <g id="house-black-silhouette-without-door" transform="translate(0 -4.89)">
    <path id="Path_3125" data-name="Path 3125" d="M24.687,16.7a1.192,1.192,0,0,0-.1-1.706L13.416,5.217a1.393,1.393,0,0,0-1.817.021L.389,15.514a1.185,1.185,0,0,0-.054,1.7l.281.293a1.226,1.226,0,0,0,1.682.129l.838-.75V27.874a1.219,1.219,0,0,0,1.22,1.22h4.37a1.219,1.219,0,0,0,1.22-1.22V20.189h5.574v7.685a1.152,1.152,0,0,0,1.146,1.219H21.3a1.219,1.219,0,0,0,1.22-1.22V17.044l.517.454c.285.25.884.05,1.337-.449Z" transform="translate(0 0)" fill="#a4a4a4"/>
  </g>
</svg>
