<svg xmlns="http://www.w3.org/2000/svg" width="19.082" height="19.082" viewBox="0 0 19.082 19.082">
  <g id="Group_1937" data-name="Group 1937" transform="translate(-651.25 -243.25)">
    <path id="Rectangle" d="M16.084,16.9H3a3,3,0,0,1-3-3V3A3,3,0,0,1,3,0H16.084a3,3,0,0,1,3,3V13.9A3,3,0,0,1,16.084,16.9ZM3,1.636A1.365,1.365,0,0,0,1.636,3V13.9A1.365,1.365,0,0,0,3,15.266H16.084A1.365,1.365,0,0,0,17.447,13.9V3a1.365,1.365,0,0,0-1.363-1.363Z" transform="translate(651.25 245.431)" fill="#9a9a9a"/>
    <path id="Line" d="M0,1.636H19.082V0H0Z" transform="translate(651.25 250.338)" fill="#9a9a9a"/>
    <path id="Line_8" data-name="Line 8" d="M1.636,3V.818A.818.818,0,0,0,0,.818V3A.818.818,0,0,0,1.636,3Z" transform="translate(665.971 243.25)" fill="#9a9a9a"/>
    <path id="Line_8-2" data-name="Line 8" d="M1.636,3V.818A.818.818,0,0,0,0,.818V3A.818.818,0,0,0,1.636,3Z" transform="translate(653.976 243.25)" fill="#9a9a9a"/>
  </g>
</svg>
