<svg xmlns="http://www.w3.org/2000/svg" width="46.66" height="34.995" viewBox="0 0 46.66 34.995">
  <g id="Group_2670" data-name="Group 2670" transform="translate(-226.905 -722.019)">
    <path id="Path_3221" data-name="Path 3221" d="M267.32,725.13a3.137,3.137,0,0,1,3.134,3.134v22.508a3.137,3.137,0,0,1-3.134,3.132H233.15a3.137,3.137,0,0,1-3.134-3.132V728.264a3.137,3.137,0,0,1,3.134-3.134H267.32m0-3.111H233.15a6.244,6.244,0,0,0-6.245,6.245v22.508a6.244,6.244,0,0,0,6.245,6.243H267.32a6.244,6.244,0,0,0,6.245-6.243V728.264a6.244,6.244,0,0,0-6.245-6.245Z" transform="translate(0 0)" fill="#e83c77"/>
    <path id="Path_3222" data-name="Path 3222" d="M237.4,728.589a2.154,2.154,0,1,1-2.154,2.154,2.157,2.157,0,0,1,2.154-2.154m0-3.111a5.264,5.264,0,1,0,5.265,5.265,5.264,5.264,0,0,0-5.265-5.265Z" transform="translate(4.94 3.266)" fill="#e83c77"/>
    <path id="Path_3223" data-name="Path 3223" d="M239.322,731.39a9.563,9.563,0,0,0-9.159,6.6,1.55,1.55,0,0,0,1.518,1.96h0a1.552,1.552,0,0,0,1.472-1.067,6.593,6.593,0,0,1,12.353,0,1.556,1.556,0,0,0,1.474,1.067h0a1.55,1.55,0,0,0,1.518-1.96A9.593,9.593,0,0,0,239.322,731.39Z" transform="translate(3.014 8.848)" fill="#e83c77"/>
    <rect id="Rectangle_1780" data-name="Rectangle 1780" width="13.134" height="3.11" rx="1.555" transform="translate(253.755 731.122)" fill="#e83c77"/>
    <rect id="Rectangle_1781" data-name="Rectangle 1781" width="13.134" height="3.11" rx="1.555" transform="translate(253.755 737.962)" fill="#e83c77"/>
    <rect id="Rectangle_1782" data-name="Rectangle 1782" width="13.134" height="3.11" rx="1.555" transform="translate(253.755 744.802)" fill="#e83c77"/>
  </g>
</svg>
