<svg xmlns="http://www.w3.org/2000/svg" width="24" height="24" viewBox="0 0 24 24">
  <g id="Group_2643" data-name="Group 2643" transform="translate(-491.7 -571.02)">
    <path id="Path_3133" data-name="Path 3133" d="M503.7,583.05a12.04,12.04,0,0,0-12,12.086h1.8a10.2,10.2,0,1,1,20.4,0h1.8A12.046,12.046,0,0,0,503.7,583.05Z" transform="translate(0 -0.116)" fill="#e83c77"/>
    <path id="Path_3134" data-name="Path 3134" d="M503.739,571.02a5.454,5.454,0,1,0,5.449,5.449A5.455,5.455,0,0,0,503.739,571.02Zm0,9.095a3.641,3.641,0,1,1,3.636-3.646A3.645,3.645,0,0,1,503.739,580.115Z" transform="translate(-0.039)" fill="#e83c77"/>
  </g>
</svg>
