<svg xmlns="http://www.w3.org/2000/svg" width="20.552" height="14.394" viewBox="0 0 20.552 14.394">
  <g id="Group_2418" data-name="Group 2418" transform="translate(-530.575 -1072.452)">
    <path id="Path_2744" data-name="Path 2744" d="M549.505,1086.846H532.2a1.624,1.624,0,0,1-1.622-1.622v-11.15a1.624,1.624,0,0,1,1.622-1.622h17.308a1.624,1.624,0,0,1,1.622,1.622v11.15A1.624,1.624,0,0,1,549.505,1086.846Zm-16.991-12.894a.438.438,0,0,0-.439.438v10.518a.438.438,0,0,0,.439.438h16.674a.439.439,0,0,0,.439-.438V1074.39a.439.439,0,0,0-.439-.438Z" fill="#e83c77"/>
    <path id="Path_2745" data-name="Path 2745" d="M545.254,1075.775h-1.207a.147.147,0,0,1-.147-.147v-1.875h1.5v1.875A.146.146,0,0,1,545.254,1075.775Z" fill="#e83c77"/>
    <rect id="Rectangle_1400" data-name="Rectangle 1400" width="1.5" height="2.021" rx="0.147" transform="translate(543.9 1076.994)" fill="#e83c77"/>
    <rect id="Rectangle_1401" data-name="Rectangle 1401" width="1.5" height="2.021" rx="0.147" transform="translate(543.9 1080.233)" fill="#e83c77"/>
    <path id="Path_2746" data-name="Path 2746" d="M545.4,1085.494h-1.5v-1.874a.147.147,0,0,1,.147-.147h1.207a.146.146,0,0,1,.146.147Z" fill="#e83c77"/>
  </g>
</svg>
