<svg id="Group_2430" data-name="Group 2430" xmlns="http://www.w3.org/2000/svg" width="17.633" height="17.633" viewBox="0 0 17.633 17.633">
  <path id="Club" d="M64.092,70.567h-2a.327.327,0,0,1-.326-.326v-2a.816.816,0,0,0-1.632,0v2a.325.325,0,0,1-.325.326h-2a.816.816,0,0,0,0,1.633h2a.323.323,0,0,1,.325.326v2a.815.815,0,0,0,1.391.584.8.8,0,0,0,.241-.577v-2A.325.325,0,0,1,62.1,72.2h2a.816.816,0,0,0,0-1.633ZM73.8,67.425H67.517a.818.818,0,0,0-.817.815v6.284a.82.82,0,0,0,.817.818H73.8a.817.817,0,0,0,.814-.818V68.24A.814.814,0,0,0,73.8,67.425Zm-.821,5.955a.325.325,0,0,1-.326.326H68.661a.325.325,0,0,1-.326-.326v-4a.323.323,0,0,1,.326-.326h3.992a.323.323,0,0,1,.326.326Zm1.648-8.966a1.1,1.1,0,0,0-.15-.434L71.421,58.22a.829.829,0,0,0-1.524-.013l-3.054,5.759a1.1,1.1,0,0,0,.791,1.662h6.047a1.075,1.075,0,0,0,.713-.407A1.093,1.093,0,0,0,74.626,64.413Zm-2.263-.574a.327.327,0,0,1-.28.157H69.23a.331.331,0,0,1-.28-.157.325.325,0,0,1-.006-.323L70.367,60.8a.341.341,0,0,1,.58,0l1.426,2.715A.334.334,0,0,1,72.363,63.839Zm-11.41-6.127a3.958,3.958,0,1,0,3.956,3.96A3.962,3.962,0,0,0,60.953,57.712Zm0,6.284a2.326,2.326,0,0,1,0-4.651h0a2.326,2.326,0,0,1,0,4.651Z" transform="translate(-57 -57.712)" fill="#fff"/>
</svg>
