<svg xmlns="http://www.w3.org/2000/svg" width="19.458" height="19.459" viewBox="0 0 19.458 19.459">
  <g id="Group_1863" data-name="Group 1863" transform="translate(0.5 0.501)">
    <path id="Union_18" data-name="Union 18" d="M1.891,14.827A9.234,9.234,0,0,1,1.243,4.6l0-.007.009-.015A9.187,9.187,0,0,1,3.57,1.939l.018-.014.013-.01A9.191,9.191,0,0,1,7.016.268l.009,0,.03-.007A9.23,9.23,0,0,1,11.672,18.13a9.232,9.232,0,0,1-9.781-3.3Zm7.3,2.212h.039a7.755,7.755,0,0,0,3.9-1.046q.3-.174.583-.371a7.846,7.846,0,0,0,2.423-2.752h0l.005-.01a7.845,7.845,0,0,0,.82-2.562l0-.022h0a7.779,7.779,0,0,0-.977-4.947q-.167-.29-.355-.56l-.011-.016,0,0A7.8,7.8,0,0,0,9.979,1.457q-.371-.035-.751-.036a7.818,7.818,0,0,0-2.011.261l-.042.011h0a7.823,7.823,0,0,0-1.851.773q-.3.176-.588.375A7.79,7.79,0,0,0,1.534,7.9c0,.014-.005.028-.009.041a7.84,7.84,0,0,0,.915,5.15q.013.02.026.041a7.766,7.766,0,0,0,1.764,2.1l.031.028A7.836,7.836,0,0,0,9.189,17.038Z" transform="translate(0 0)" fill="#9a9a9a" stroke="rgba(0,0,0,0)" stroke-miterlimit="10" stroke-width="1"/>
    <path id="Path" d="M1.42.71A.71.71,0,0,0,0,.71V5.631a.71.71,0,0,0,.208.5L2.721,8.646a.71.71,0,1,0,1-1L1.42,5.337Z" transform="translate(8.519 4.545)" fill="#9a9a9a"/>
  </g>
</svg>
