<svg id="_24x24_On_Light_User" data-name="24x24/On Light/User" xmlns="http://www.w3.org/2000/svg" width="24" height="24" viewBox="0 0 24 24">
  <rect id="view-box" width="24" height="24" fill="none"/>
  <path id="Shape" d="M0,9.75A9.75,9.75,0,1,1,9.75,19.5,9.761,9.761,0,0,1,0,9.75ZM9.75,18a8.218,8.218,0,0,0,5.515-2.119,4.328,4.328,0,0,0-1.421-.75c-.112-.04-.229-.081-.377-.13l-.386-.13c-1.4-.471-2.023-.851-2.293-1.742a1.876,1.876,0,0,1-.055-.223,2.369,2.369,0,0,1,.138-1.4,2.123,2.123,0,0,1,.589-.795,2.823,2.823,0,0,0,1.042-2.3A2.832,2.832,0,0,0,9.75,5.5,2.8,2.8,0,0,0,7,8.417a2.843,2.843,0,0,0,1,2.274,2.278,2.278,0,0,1,.571.695,2.224,2.224,0,0,1,.2,1.537,1.152,1.152,0,0,1-.045.17c-.237.877-.847,1.254-2.188,1.712l-.445.15c-.173.059-.308.106-.437.154a4.312,4.312,0,0,0-1.419.771A8.216,8.216,0,0,0,9.75,18ZM14,8.417a4.32,4.32,0,0,1-1.559,3.427.672.672,0,0,0-.193.255.928.928,0,0,0-.043.527c.006.031.01.046.013.055.077.253.408.454,1.342.769l.384.129c.157.053.284.1.408.141a5.645,5.645,0,0,1,1.935,1.058,8.25,8.25,0,1,0-13.074,0A5.672,5.672,0,0,1,5.135,13.7c.144-.053.291-.1.475-.167l.443-.149c.863-.3,1.17-.484,1.244-.747,0,.006,0-.005.007-.033a.769.769,0,0,0-.058-.519.9.9,0,0,0-.237-.271A4.346,4.346,0,0,1,5.5,8.417,4.3,4.3,0,0,1,9.75,4,4.332,4.332,0,0,1,14,8.417Z" transform="translate(2.25 2.25)" fill="#141124"/>
</svg>
