<svg xmlns="http://www.w3.org/2000/svg" width="22.287" height="15.897" viewBox="0 0 22.287 15.897">
  <g id="Group_2491" data-name="Group 2491" transform="translate(-488.85 -492.07)">
    <path id="Path_3118" data-name="Path 3118" d="M496.489,499.438a3.69,3.69,0,0,0,2.614-6.293,3.729,3.729,0,0,0-2.614-1.075,3.684,3.684,0,0,0,0,7.368Zm-1.51-5.2a2.147,2.147,0,1,1,1.51,3.669,2.143,2.143,0,0,1-1.51-3.669Z" transform="translate(-0.126)" fill="#e83c77"/>
    <path id="Path_3119" data-name="Path 3119" d="M504.651,501.756a6.3,6.3,0,0,0-3.272.891,7.513,7.513,0,0,0-12.528,5.16v.019a.413.413,0,0,0,.416.416h.707a.431.431,0,0,0,.416-.407,5.978,5.978,0,0,1,9.73-4.241h.01l-.01.01a3.756,3.756,0,0,1,.3.252,2.389,2.389,0,0,1,.271.271,5.685,5.685,0,0,1,.494.591,5.781,5.781,0,0,1,1.142,3.117.431.431,0,0,0,.416.407h.716a.422.422,0,0,0,.407-.436,7.5,7.5,0,0,0-1.433-3.989,4.939,4.939,0,0,1,7.155,4.018.426.426,0,0,0,.426.407h.716a.428.428,0,0,0,.407-.436A6.5,6.5,0,0,0,504.651,501.756Z" transform="translate(0 -0.275)" fill="#e83c77"/>
    <path id="Path_3120" data-name="Path 3120" d="M505.077,500.824a3.127,3.127,0,1,0-3.127-3.127A3.124,3.124,0,0,0,505.077,500.824Zm0-4.715a1.588,1.588,0,1,1-1.588,1.588A1.587,1.587,0,0,1,505.077,496.109Z" transform="translate(-0.417 -0.08)" fill="#e83c77"/>
  </g>
</svg>
