<svg xmlns="http://www.w3.org/2000/svg" width="25.002" height="24" viewBox="0 0 25.002 24">
  <g id="그룹_2658" data-name="그룹 2658" transform="translate(-401.704 -850.24)">
    <g id="그룹_2657" data-name="그룹 2657">
      <g id="그룹_2656" data-name="그룹 2656">
        <path id="Path_3148" data-name="Path 3148" d="M426.62,862.32a1.277,1.277,0,0,1-1.2.83h-1.79V873.5a.73.73,0,0,1-.73.74h-6.15a.736.736,0,0,1-.73-.74v-6.29H412.4v6.29a.743.743,0,0,1-.73.74h-6.15a.745.745,0,0,1-.74-.74V863.15h-1.79a1.287,1.287,0,0,1-1.2-.83,1.3,1.3,0,0,1,.33-1.42l11.23-10.32a1.244,1.244,0,0,1,.86-.34,1.226,1.226,0,0,1,.86.34l11.21,10.32A1.286,1.286,0,0,1,426.62,862.32Z" fill="#ca265e"/>
      </g>
    </g>
  </g>
</svg>
