<svg xmlns="http://www.w3.org/2000/svg" width="24" height="24" viewBox="0 0 24 24">
  <path id="Shape" d="M9.366,20.781a3.219,3.219,0,0,1,6-1.618c2.447-1.079,3.364-2.772,3.364-5.992V9.659c0-4.673-2.635-7.9-6.732-7.9s-6.732,3.229-6.732,7.9v4.1a.879.879,0,0,1-.878.878H3.22A3.223,3.223,0,0,1,0,11.415V10.245a3.224,3.224,0,0,1,3.22-3.22h.559C4.665,2.844,7.7,0,12,0s7.334,2.844,8.22,7.025h.56A3.224,3.224,0,0,1,24,10.245v1.171a3.223,3.223,0,0,1-3.22,3.219h-.362A6.848,6.848,0,0,1,15.8,20.886a3.219,3.219,0,0,1-6.437-.1Zm1.756,0a1.463,1.463,0,1,0,1.464-1.464A1.465,1.465,0,0,0,11.122,20.781Zm9.366-7.9h.292a1.465,1.465,0,0,0,1.464-1.464V10.245A1.465,1.465,0,0,0,20.78,8.781h-.292ZM1.756,10.245v1.171A1.465,1.465,0,0,0,3.22,12.879h.292v-4.1H3.22A1.465,1.465,0,0,0,1.756,10.245Z" fill="#fff"/>
</svg>
