<svg xmlns="http://www.w3.org/2000/svg" width="20" height="20" viewBox="0 0 20 20">
  <path id="Shape" d="M7.8,17.318a2.682,2.682,0,0,1,5-1.348c2.039-.9,2.8-2.31,2.8-4.994V8.049c0-3.894-2.2-6.585-5.61-6.585S4.39,4.155,4.39,8.049v3.415a.733.733,0,0,1-.731.731H2.683A2.686,2.686,0,0,1,0,9.513V8.537A2.686,2.686,0,0,1,2.683,5.854h.466C3.888,2.37,6.416,0,10,0s6.111,2.37,6.85,5.854h.467A2.686,2.686,0,0,1,20,8.537v.976A2.686,2.686,0,0,1,17.317,12.2h-.3a5.707,5.707,0,0,1-3.846,5.21A2.683,2.683,0,0,1,7.8,17.318Zm1.464,0a1.219,1.219,0,1,0,1.22-1.22A1.221,1.221,0,0,0,9.269,17.318Zm7.8-6.585h.243a1.221,1.221,0,0,0,1.22-1.22V8.537a1.221,1.221,0,0,0-1.22-1.22h-.243Zm-15.61-2.2v.976a1.221,1.221,0,0,0,1.22,1.22h.243V7.318H2.683A1.221,1.221,0,0,0,1.464,8.537Z" fill="#fff"/>
</svg>
