<svg xmlns="http://www.w3.org/2000/svg" width="51.426" height="45.116" viewBox="0 0 51.426 45.116">
  <g id="Group_2464" data-name="Group 2464" transform="translate(-193.42 -404.371)">
    <path id="Path_2926" data-name="Path 2926" d="M242.684,449.487h-47.1a2.162,2.162,0,0,1-1.871-3.243l23.55-40.792a2.162,2.162,0,0,1,3.745,0l23.55,40.792a2.162,2.162,0,0,1-1.871,3.243Zm-43.358-4.324h39.612l-19.806-34.306Z" transform="translate(0 0)" fill="#e83c4e" style="isolation: isolate"/>
    <path id="Path_2927" data-name="Path 2927" d="M211.921,430.66a2.162,2.162,0,0,1-2.162-2.162V417.339a2.162,2.162,0,1,1,4.324,0V428.5A2.163,2.163,0,0,1,211.921,430.66Z" transform="translate(7.211 4.769)" fill="#e83c4e"/>
    <circle id="Ellipse_141" data-name="Ellipse 141" cx="2.353" cy="2.353" r="2.353" transform="translate(216.779 437.633)" fill="#e83c4e"/>
  </g>
</svg>
