<svg xmlns="http://www.w3.org/2000/svg" width="24" height="24" viewBox="0 0 24 24">
  <g id="Group_2434" data-name="Group 2434" transform="translate(-648 -192)">
    <path id="Rectangle" d="M3.894,15.5a3.892,3.892,0,0,1-3.3-5.956L6.338.353A.75.75,0,0,1,7.5.22L15.282,8a.749.749,0,0,1-.132,1.166L5.956,14.91A3.889,3.889,0,0,1,3.894,15.5ZM7.11,1.947,1.864,10.341a2.393,2.393,0,0,0,3.3,3.3l8.394-5.247Z" transform="translate(651.233 197.265)" fill="#fff"/>
    <path id="Line_12" data-name="Line 12" d="M0,1.061,6.169,7.229,7.229,6.169,1.061,0Z" transform="translate(655.439 201.439)" fill="#fff"/>
    <path id="Line_12-2" data-name="Line 12" d="M0,1.061,4.835,5.9,5.9,4.835,1.061,0Z" transform="translate(652.774 204.774)" fill="#fff"/>
    <path id="Path" d="M1.5,4.15V.75A.75.75,0,0,0,0,.75v3.4a.75.75,0,0,0,1.5,0Z" transform="translate(662.971 193.45)" fill="#03a5d1"/>
    <path id="Path-2" data-name="Path" d="M1.16,3.114,3.82,1.378A.75.75,0,0,0,3,.122L.34,1.857a.75.75,0,1,0,.82,1.256Z" transform="translate(665.312 198.75)" fill="#00bba2"/>
    <path id="Path-3" data-name="Path" d="M1.28,2.107l.827-.827A.75.75,0,0,0,1.047.22L.22,1.047A.75.75,0,0,0,1.28,2.107Z" transform="translate(665.971 195.798)" fill="#ff6783"/>
    <path id="Path-4" data-name="Path" d="M.75,1.5H.967a.75.75,0,0,0,0-1.5H.75a.75.75,0,0,0,0,1.5Z" transform="translate(666.971 202.625)" fill="#f6e790"/>
    <path id="Path-5" data-name="Path" d="M.75,1.5H.967a.75.75,0,0,0,0-1.5H.75a.75.75,0,0,0,0,1.5Z" transform="translate(662.971 199.625)" fill="#c75fff"/>
    <path id="Path-6" data-name="Path" d="M1.881,1.478,1.439.453a.75.75,0,1,0-1.377.594L.5,2.073a.75.75,0,1,0,1.377-.594Z" transform="translate(659.529 194.599)" fill="#f6e790"/>
    <rect id="view-box" width="24" height="24" transform="translate(648 192)" fill="none"/>
  </g>
</svg>
