<svg id="_24x24_On_Light_Spectacles" data-name="24x24/On Light/Spectacles" xmlns="http://www.w3.org/2000/svg" width="24" height="24" viewBox="0 0 24 24">
  <rect id="view-box" width="24" height="24" fill="none"/>
  <path id="Shape" d="M10,13.75a1.25,1.25,0,1,0-2.5,0,3.75,3.75,0,0,1-7.5,0c0-.022,0-.044,0-.065s0-.02,0-.029V2.75A2.75,2.75,0,0,1,2.75,0h1a.75.75,0,0,1,0,1.5h-1A1.249,1.249,0,0,0,1.5,2.75v8a3.745,3.745,0,0,1,5.4.965,2.75,2.75,0,0,1,3.7,0,3.746,3.746,0,0,1,5.4-.964v-8A1.25,1.25,0,0,0,14.75,1.5h-1a.75.75,0,1,1,0-1.5h1A2.75,2.75,0,0,1,17.5,2.75V13.656c0,.01,0,.02,0,.029s0,.043,0,.065a3.75,3.75,0,0,1-7.5,0Zm1.5,0a2.25,2.25,0,1,0,2.25-2.25A2.253,2.253,0,0,0,11.5,13.75Zm-10,0A2.25,2.25,0,1,0,3.75,11.5,2.252,2.252,0,0,0,1.5,13.75Z" transform="translate(3.25 3.25)" fill="#141124"/>
</svg>
