<svg xmlns="http://www.w3.org/2000/svg" width="22.503" height="24" viewBox="0 0 22.503 24">
  <path id="Path_3138" data-name="Path 3138" d="M607.91,548.8h-2.02v-1.122a.7.7,0,1,0-1.4,0V548.8h-9.85v-1.122a.7.7,0,1,0-1.4,0V548.8h-2.03a3.011,3.011,0,0,0-2.9,3.1v15.967a3.014,3.014,0,0,0,2.9,3.105h16.7a3.007,3.007,0,0,0,2.9-3.105V551.9A3,3,0,0,0,607.91,548.8Zm1.5,19.062a1.553,1.553,0,0,1-1.5,1.6h-16.7a1.552,1.552,0,0,1-1.49-1.6V555.424a.225.225,0,0,1,.22-.23h19.25a.224.224,0,0,1,.22.23Zm0-14.414a.24.24,0,0,1-.22.24H589.94a.24.24,0,0,1-.22-.24V551.9a1.543,1.543,0,0,1,1.49-1.593h16.7a1.545,1.545,0,0,1,1.5,1.593Z" transform="translate(-588.309 -546.97)" fill="#e83c77"/>
</svg>
