<svg id="calendar" xmlns="http://www.w3.org/2000/svg" width="32.3" height="35" viewBox="0 0 32.3 35">
  <path id="Path_3131" data-name="Path 3131" d="M28.136,2.734h-2.9V1.094a1.013,1.013,0,1,0-2.019,0V2.734H9.084V1.094A1.054,1.054,0,0,0,8.075,0,1.054,1.054,0,0,0,7.066,1.094V2.734h-2.9A4.353,4.353,0,0,0,0,7.246V30.488A4.353,4.353,0,0,0,4.164,35H28.136A4.353,4.353,0,0,0,32.3,30.488V7.246A4.353,4.353,0,0,0,28.136,2.734Zm2.145,27.754a2.24,2.24,0,0,1-2.145,2.324H4.164a2.24,2.24,0,0,1-2.145-2.324V12.373a.329.329,0,0,1,.315-.342H29.966a.329.329,0,0,1,.315.342Z" fill="#e83c77"/>
</svg>
