<svg id="_24x24_On_Light_Picker" data-name="24x24/On Light/Picker" xmlns="http://www.w3.org/2000/svg" width="24" height="24" viewBox="0 0 24 24">
  <rect id="view-box" width="24" height="24" fill="none"/>
  <path id="Shape" d="M3.578,21.908,1.621,17.951a.75.75,0,0,1-.077-.333V7.511H.75a.75.75,0,0,1,0-1.5h.794V2.721A2.721,2.721,0,0,1,4.193,0h.113a2.721,2.721,0,0,1,2.651,2.72V6.012H7.75a.75.75,0,1,1,0,1.5H6.957V17.618a.751.751,0,0,1-.078.333L4.922,21.908a.75.75,0,0,1-1.345,0Z" transform="translate(1.131 7.185) rotate(-45)" fill="#141124"/>
  <rect id="view-box-2" data-name="view-box" width="24" height="24" fill="none"/>
</svg>
