<svg xmlns="http://www.w3.org/2000/svg" width="20" height="20" viewBox="0 0 20 20">
  <path id="Path_3121" data-name="Path 3121" d="M493.2,517.908a.545.545,0,0,0-.145-.124,1.007,1.007,0,0,0-.549-.166H487.3v-5.207a1.269,1.269,0,0,0-.021-.2,1.055,1.055,0,0,0-.145-.352.991.991,0,0,0-.818-.435h-5.652a.983.983,0,0,0-.983.983v5.207h-5.207a.983.983,0,0,0-.983.983v5.652a1.02,1.02,0,0,0,.435.818,1.056,1.056,0,0,0,.352.145,1.151,1.151,0,0,0,.2.021h5.207v5.207a.983.983,0,0,0,.983.983h5.652a.983.983,0,0,0,.983-.983v-5.207h5.207a1.15,1.15,0,0,0,.2-.021,1.055,1.055,0,0,0,.352-.145,1.02,1.02,0,0,0,.435-.818V518.6A.987.987,0,0,0,493.2,517.908Zm-1.263,5.776H487.3a1.551,1.551,0,0,0-1.553,1.553v4.638h-4.513v-4.638a1.551,1.551,0,0,0-1.553-1.553h-4.638v-4.513h4.638a1.557,1.557,0,0,0,1.553-1.553v-4.638h4.513v4.638a1.557,1.557,0,0,0,1.553,1.553h4.638Z" transform="translate(-473.49 -511.428)" fill="#e83c77"/>
</svg>
