<svg xmlns="http://www.w3.org/2000/svg" width="15.217" height="18.657" viewBox="0 0 15.217 18.657">
  <g id="Group_1854" data-name="Group 1854" transform="translate(-1293.272 -151.554)">
    <path id="Path_1108" data-name="Path 1108" d="M1300.88,170.211h0a.677.677,0,0,1-.5-.225l-4.9-5.467a1.275,1.275,0,0,1-.1-.11l-.258-.281c-.013-.015-.027-.03-.039-.046a.68.68,0,0,1-.05-.054,7.607,7.607,0,1,1,11.588.152.616.616,0,0,1-.051.053c-.012.017-.029.036-.041.049l-5.136,5.707A.678.678,0,0,1,1300.88,170.211Zm-4.765-6.994.269.293a.526.526,0,0,1,.039.048l.03.028,4.429,4.935,4.616-5.129.044-.053a.778.778,0,0,1,.06-.062,6.256,6.256,0,1,0-9.583-.175A.652.652,0,0,1,1296.115,163.218Zm9.984.519h0Z" transform="translate(0 0)" fill="#d1d1d1"/>
    <path id="Path_1109" data-name="Path 1109" d="M1304.487,165.761a3.98,3.98,0,1,1,3.98-3.979A3.984,3.984,0,0,1,1304.487,165.761Zm0-6.605a2.626,2.626,0,1,0,2.626,2.626A2.629,2.629,0,0,0,1304.487,159.156Z" transform="translate(-3.606 -3.114)" fill="#d1d1d1"/>
  </g>
</svg>
