<svg xmlns="http://www.w3.org/2000/svg" width="22.504" height="23.99" viewBox="0 0 22.504 23.99">
  <path id="Path_3150" data-name="Path 3150" d="M560.31,852.07h-2.03v-1.12a.7.7,0,0,0-1.4,0v1.12h-9.85v-1.12a.7.7,0,0,0-1.4,0v1.12H543.6a3.011,3.011,0,0,0-2.9,3.1v15.97a3.017,3.017,0,0,0,2.9,3.1h16.7a3,3,0,0,0,2.9-3.1V855.17A2.99,2.99,0,0,0,560.31,852.07Zm1.49,19.06a1.546,1.546,0,0,1-1.5,1.6H543.6a1.557,1.557,0,0,1-1.49-1.6V858.69a.238.238,0,0,1,.22-.23h19.25a.218.218,0,0,1,.22.23Z" transform="translate(-540.698 -850.25)" fill="#ca265e"/>
</svg>
