<svg id="Group_1852" data-name="Group 1852" xmlns="http://www.w3.org/2000/svg" width="20" height="20" viewBox="0 0 20 20">
  <path id="Path_1100" data-name="Path 1100" d="M1299.74,154.671a2.982,2.982,0,0,0,2.2,2.337,3.176,3.176,0,0,1-2.2-2.337Z" transform="translate(-1292.88 -153.182)" fill="#fff"/>
  <path id="Path_1101" data-name="Path 1101" d="M1305.15,159.576c.089,0,.172.01.256.01a2.522,2.522,0,0,1-.276-.015A.03.03,0,0,0,1305.15,159.576Z" transform="translate(-1295.425 -155.29)" fill="#fff"/>
  <path id="Path_1102" data-name="Path 1102" d="M1305.487,151.651h-5.557a.9.9,0,0,0-.913.935,2.038,2.038,0,0,1-.071.589,1.812,1.812,0,0,1-1.427,1.286,1.9,1.9,0,0,1-.86-.054,1.736,1.736,0,0,1-.324-.141,1.813,1.813,0,0,1-.957-1.595v-.049a.923.923,0,0,0-.914-.973h-5.551a1.714,1.714,0,0,0-1.714,1.714v2.978a1.714,1.714,0,0,0,1.714,1.714h.519V169.6a2.051,2.051,0,0,0,2.049,2.049h11.443a2.042,2.042,0,0,0,2.043-2.043V158.056h.519a1.714,1.714,0,0,0,1.713-1.714v-2.978A1.714,1.714,0,0,0,1305.487,151.651Zm.254,4.692a.254.254,0,0,1-.254.254h-.519a1.46,1.46,0,0,0-1.459,1.459v11.551a.581.581,0,0,1-.584.584h-11.443a.59.59,0,0,1-.589-.589V158.056a1.46,1.46,0,0,0-1.46-1.459h-.519a.254.254,0,0,1-.254-.254v-2.978a.254.254,0,0,1,.254-.254h5.032a.033.033,0,0,0,.005.022c.011.049.016.1.027.151a3.482,3.482,0,0,0,2.416,2.562c.07.022.146.038.222.054.092.011.184.027.276.032a2.762,2.762,0,0,0,.3.016h.005a3.066,3.066,0,0,0,.319-.016,2.174,2.174,0,0,0,.27-.038,1.6,1.6,0,0,0,.173-.038,1.522,1.522,0,0,0,.211-.054c.086-.027.173-.059.259-.092.032-.011.059-.027.092-.038.081-.038.157-.076.238-.119a2.74,2.74,0,0,0,.27-.162s0-.005.005,0c.087-.065.168-.124.243-.189a2.163,2.163,0,0,0,.232-.211c.076-.076.146-.151.216-.232s.113-.151.167-.227a3.319,3.319,0,0,0,.184-.3,1.892,1.892,0,0,0,.114-.232c.038-.087.07-.173.1-.259.016-.059.038-.119.054-.178.022-.076.043-.151.059-.227s.027-.151.038-.227h5.038a.254.254,0,0,1,.254.254Z" transform="translate(-1287.2 -151.651)" fill="#fff"/>
</svg>
