<svg xmlns="http://www.w3.org/2000/svg" width="14.745" height="24" viewBox="0 0 14.745 24">
  <g id="Group_2659" data-name="Group 2659" transform="translate(-553.47 -571.02)">
    <path id="Path_3135" data-name="Path 3135" d="M565.79,595.02h-1.8l.2-24h1.4Z" transform="translate(-0.794)" fill="#e83c77"/>
    <path id="Path_3136" data-name="Path 3136" d="M569.272,595.02h-1.8l.2-24h1.4Z" transform="translate(-1.057)" fill="#e83c77"/>
    <path id="Path_3137" data-name="Path 3137" d="M560.84,575.732c0-2.221-1.65-4.712-3.68-4.712s-3.69,2.491-3.69,4.712a4.291,4.291,0,0,0,2.98,4.19l-.2,15.1h1.81l-.2-15.1A4.282,4.282,0,0,0,560.84,575.732Zm-3.68,2.781c-1.07,0-2.09-1.353-2.09-2.781,0-1.633,1.2-3.219,2.09-3.219s2.08,1.586,2.08,3.219C559.24,577.16,558.22,578.513,557.16,578.513Z" fill="#e83c77"/>
  </g>
</svg>
